<?xml version="1.0" encoding="UTF-8" standalone="no"?>
<!DOCTYPE svg PUBLIC "-//W3C//DTD SVG 1.1//EN"
 "http://www.w3.org/Graphics/SVG/1.1/DTD/svg11.dtd">
<!-- Generated by graphviz version 7.0.1 (20221109.1506)
 -->
<!-- Title: my_graph Pages: 1 -->
<svg width="776pt" height="412pt"
 viewBox="0.00 0.00 776.28 412.48" xmlns="http://www.w3.org/2000/svg" xmlns:xlink="http://www.w3.org/1999/xlink">
<g id="graph0" class="graph" transform="scale(1 1) rotate(0) translate(4 408.48)">
<title>my_graph</title>
<polygon fill="white" stroke="none" points="-4,4 -4,-408.48 772.28,-408.48 772.28,4 -4,4"/>
<!-- systemd&#45;resolve&#45;696 -->
<g id="node1" class="node">
<title>systemd&#45;resolve&#45;696</title>
<ellipse fill="none" stroke="black" cx="360.19" cy="-171.49" rx="84.49" ry="84.49"/>
<text text-anchor="middle" x="360.19" y="-167.79" font-family="Times,serif" font-size="14.00">systemd&#45;resolve&#45;696</text>
</g>
<!-- 127.0.0.1:52500&#45;&gt;127.0.0.53:53 -->
<g id="node5" class="node">
<title>127.0.0.1:52500&#45;&gt;127.0.0.53:53</title>
<ellipse fill="none" stroke="black" cx="254.19" cy="-18" rx="126.18" ry="18"/>
<text text-anchor="middle" x="254.19" y="-14.3" font-family="Times,serif" font-size="14.00">127.0.0.1:52500&#45;&gt;127.0.0.53:53</text>
</g>
<!-- systemd&#45;resolve&#45;696&#45;&gt;127.0.0.1:52500&#45;&gt;127.0.0.53:53 -->
<g id="edge8" class="edge">
<title>systemd&#45;resolve&#45;696&#45;&gt;127.0.0.1:52500&#45;&gt;127.0.0.53:53</title>
<path fill="none" stroke="black" d="M276.31,-158.42C181.51,-142.85 36.06,-112.51 3.19,-69 -0.83,-63.68 -1.18,-59.03 3.19,-54 19.14,-35.68 68.01,-26.65 118.44,-22.31"/>
<polygon fill="black" stroke="black" points="118.7,-25.8 128.39,-21.52 118.15,-18.82 118.7,-25.8"/>
<text text-anchor="middle" x="27.69" y="-57.8" font-family="Times,serif" font-size="14.00">sendmsg</text>
</g>
<!-- systemd&#45;resolve&#45;696&#45;&gt;127.0.0.1:52500&#45;&gt;127.0.0.53:53 -->
<g id="edge9" class="edge">
<title>systemd&#45;resolve&#45;696&#45;&gt;127.0.0.1:52500&#45;&gt;127.0.0.53:53</title>
<path fill="none" stroke="black" d="M275.42,-165.55C208.85,-156.68 120.15,-132.74 75.19,-69 71.35,-63.55 70.96,-59.15 75.19,-54 84.3,-42.95 109.31,-35.33 137.85,-30.11"/>
<polygon fill="black" stroke="black" points="138.18,-33.61 147.45,-28.48 137,-26.71 138.18,-33.61"/>
<text text-anchor="middle" x="99.69" y="-57.8" font-family="Times,serif" font-size="14.00">sendmsg</text>
</g>
<!-- systemd&#45;resolve&#45;696&#45;&gt;127.0.0.1:52500&#45;&gt;127.0.0.53:53 -->
<g id="edge10" class="edge">
<title>systemd&#45;resolve&#45;696&#45;&gt;127.0.0.1:52500&#45;&gt;127.0.0.53:53</title>
<path fill="none" stroke="black" d="M277.12,-153.74C230.31,-139.6 175.67,-114.12 147.19,-69 137.86,-54.21 146.62,-43.73 162.46,-36.32"/>
<polygon fill="black" stroke="black" points="163.72,-39.58 171.73,-32.65 161.14,-33.08 163.72,-39.58"/>
<text text-anchor="middle" x="171.69" y="-57.8" font-family="Times,serif" font-size="14.00">sendmsg</text>
</g>
<!-- systemd&#45;resolve&#45;696&#45;&gt;127.0.0.1:52500&#45;&gt;127.0.0.53:53 -->
<g id="edge11" class="edge">
<title>systemd&#45;resolve&#45;696&#45;&gt;127.0.0.1:52500&#45;&gt;127.0.0.53:53</title>
<path fill="none" stroke="black" d="M285.52,-131.63C262.49,-115.58 239.88,-94.64 227.19,-69 223.36,-61.25 225.31,-52.95 229.54,-45.39"/>
<polygon fill="black" stroke="black" points="232.39,-47.41 235.25,-37.21 226.65,-43.41 232.39,-47.41"/>
<text text-anchor="middle" x="251.69" y="-57.8" font-family="Times,serif" font-size="14.00">sendmsg</text>
</g>
<!-- 127.0.0.1:50081&#45;&gt;127.0.0.53:53 -->
<g id="node6" class="node">
<title>127.0.0.1:50081&#45;&gt;127.0.0.53:53</title>
<ellipse fill="none" stroke="black" cx="642.19" cy="-18" rx="126.18" ry="18"/>
<text text-anchor="middle" x="642.19" y="-14.3" font-family="Times,serif" font-size="14.00">127.0.0.1:50081&#45;&gt;127.0.0.53:53</text>
</g>
<!-- systemd&#45;resolve&#45;696&#45;&gt;127.0.0.1:50081&#45;&gt;127.0.0.53:53 -->
<g id="edge12" class="edge">
<title>systemd&#45;resolve&#45;696&#45;&gt;127.0.0.1:50081&#45;&gt;127.0.0.53:53</title>
<path fill="none" stroke="black" d="M432.74,-127.88C472.13,-105.2 521.89,-77.27 567.19,-54 576.11,-49.42 585.73,-44.74 595.02,-40.35"/>
<polygon fill="black" stroke="black" points="596.35,-43.59 603.93,-36.18 593.39,-37.25 596.35,-43.59"/>
<text text-anchor="middle" x="591.69" y="-57.8" font-family="Times,serif" font-size="14.00">sendmsg</text>
</g>
<!-- 127.0.0.53 -->
<g id="node2" class="node">
<title>127.0.0.53</title>
<ellipse fill="none" stroke="black" cx="487.19" cy="-355.73" rx="48.99" ry="48.99"/>
<text text-anchor="middle" x="487.19" y="-352.03" font-family="Times,serif" font-size="14.00">127.0.0.53</text>
</g>
<!-- 127.0.0.1 -->
<g id="node3" class="node">
<title>127.0.0.1</title>
<ellipse fill="none" stroke="black" cx="598.19" cy="-355.73" rx="44.39" ry="44.39"/>
<text text-anchor="middle" x="598.19" y="-352.03" font-family="Times,serif" font-size="14.00">127.0.0.1</text>
</g>
<!-- 127.0.0.53:53 -->
<g id="node4" class="node">
<title>127.0.0.53:53</title>
<ellipse fill="none" stroke="black" cx="360.19" cy="-355.73" rx="59.59" ry="18"/>
<text text-anchor="middle" x="360.19" y="-352.03" font-family="Times,serif" font-size="14.00">127.0.0.53:53</text>
</g>
<!-- 127.0.0.53:53&#45;&gt;systemd&#45;resolve&#45;696 -->
<g id="edge1" class="edge">
<title>127.0.0.53:53&#45;&gt;systemd&#45;resolve&#45;696</title>
<path fill="none" stroke="black" d="M360.19,-337.26C360.19,-320.73 360.19,-294.55 360.19,-267.88"/>
<polygon fill="black" stroke="black" points="363.69,-267.97 360.19,-257.97 356.69,-267.97 363.69,-267.97"/>
<text text-anchor="middle" x="383.69" y="-277.79" font-family="Times,serif" font-size="14.00">recvmsg</text>
</g>
<!-- 127.0.0.1:52500&#45;&gt;127.0.0.53:53&#45;&gt;systemd&#45;resolve&#45;696 -->
<g id="edge2" class="edge">
<title>127.0.0.1:52500&#45;&gt;127.0.0.53:53&#45;&gt;systemd&#45;resolve&#45;696</title>
<path fill="none" stroke="black" d="M266.21,-36.18C276.05,-50.24 290.73,-71.21 305.57,-92.43"/>
<polygon fill="black" stroke="black" points="302.69,-94.41 311.29,-100.6 308.42,-90.4 302.69,-94.41"/>
<text text-anchor="middle" x="312.69" y="-57.8" font-family="Times,serif" font-size="14.00">recvmsg</text>
</g>
<!-- 127.0.0.1:52500&#45;&gt;127.0.0.53:53&#45;&gt;systemd&#45;resolve&#45;696 -->
<g id="edge3" class="edge">
<title>127.0.0.1:52500&#45;&gt;127.0.0.53:53&#45;&gt;systemd&#45;resolve&#45;696</title>
<path fill="none" stroke="black" d="M312.61,-34.4C322.33,-39.27 331.43,-45.66 338.19,-54 343.56,-60.61 347.76,-68.13 351.04,-76.09"/>
<polygon fill="black" stroke="black" points="347.68,-77.09 354.33,-85.34 354.28,-74.75 347.68,-77.09"/>
<text text-anchor="middle" x="370.69" y="-57.8" font-family="Times,serif" font-size="14.00">recvmsg</text>
</g>
<!-- 127.0.0.1:52500&#45;&gt;127.0.0.53:53&#45;&gt;systemd&#45;resolve&#45;696 -->
<g id="edge4" class="edge">
<title>127.0.0.1:52500&#45;&gt;127.0.0.53:53&#45;&gt;systemd&#45;resolve&#45;696</title>
<path fill="none" stroke="black" d="M342.14,-31.21C367.47,-36.64 390.4,-44.09 398.19,-54 406.09,-64.05 408.19,-75.8 406.77,-87.91"/>
<polygon fill="black" stroke="black" points="403.36,-87.1 404.84,-97.59 410.23,-88.47 403.36,-87.1"/>
<text text-anchor="middle" x="429.69" y="-57.8" font-family="Times,serif" font-size="14.00">recvmsg</text>
</g>
<!-- 127.0.0.1:52500&#45;&gt;127.0.0.53:53&#45;&gt;systemd&#45;resolve&#45;696 -->
<g id="edge5" class="edge">
<title>127.0.0.1:52500&#45;&gt;127.0.0.53:53&#45;&gt;systemd&#45;resolve&#45;696</title>
<path fill="none" stroke="black" d="M368.47,-25.97C407.73,-30.93 444.92,-39.43 457.19,-54 474.93,-75.06 461.97,-98.37 440.43,-118.56"/>
<polygon fill="black" stroke="black" points="438.15,-115.91 432.94,-125.14 442.77,-121.17 438.15,-115.91"/>
<text text-anchor="middle" x="488.69" y="-57.8" font-family="Times,serif" font-size="14.00">recvmsg</text>
</g>
<!-- 127.0.0.1:50081&#45;&gt;127.0.0.53:53&#45;&gt;systemd&#45;resolve&#45;696 -->
<g id="edge6" class="edge">
<title>127.0.0.1:50081&#45;&gt;127.0.0.53:53&#45;&gt;systemd&#45;resolve&#45;696</title>
<path fill="none" stroke="black" d="M638.22,-36.25C634.96,-46.92 629.37,-60.21 620.19,-69 574.87,-112.45 508.82,-137.91 454.63,-152.47"/>
<polygon fill="black" stroke="black" points="453.88,-149.05 445.08,-154.95 455.64,-155.83 453.88,-149.05"/>
<text text-anchor="middle" x="653.69" y="-57.8" font-family="Times,serif" font-size="14.00">recvmsg</text>
</g>
<!-- 127.0.0.1:50081&#45;&gt;127.0.0.53:53&#45;&gt;systemd&#45;resolve&#45;696 -->
<g id="edge7" class="edge">
<title>127.0.0.1:50081&#45;&gt;127.0.0.53:53&#45;&gt;systemd&#45;resolve&#45;696</title>
<path fill="none" stroke="black" d="M668.49,-35.93C680.07,-45.52 689.39,-57.81 681.19,-69 654.04,-106.06 539.21,-135.87 454.6,-153.37"/>
<polygon fill="black" stroke="black" points="453.99,-149.92 444.89,-155.35 455.38,-156.78 453.99,-149.92"/>
<text text-anchor="middle" x="707.69" y="-57.8" font-family="Times,serif" font-size="14.00">recvmsg</text>
</g>
</g>
</svg>
